<svg width="14" height="14" viewBox="0 0 14 14" fill="none" xmlns="http://www.w3.org/2000/svg">
<path d="M6.33333 9.00004H7.66667V10.3334H6.33333V9.00004ZM6.33333 3.66671H7.66667V7.66671H6.33333V3.66671ZM6.99333 0.333374C3.31333 0.333374 0.333332 3.32004 0.333332 7.00004C0.333332 10.68 3.31333 13.6667 6.99333 13.6667C10.68 13.6667 13.6667 10.68 13.6667 7.00004C13.6667 3.32004 10.68 0.333374 6.99333 0.333374ZM7 12.3334C4.05333 12.3334 1.66667 9.94671 1.66667 7.00004C1.66667 4.05337 4.05333 1.66671 7 1.66671C9.94667 1.66671 12.3333 4.05337 12.3333 7.00004C12.3333 9.94671 9.94667 12.3334 7 12.3334Z" fill="black"/>
</svg>
